<?xml version="1.0" encoding="utf-8"?>
<svg width="120px" height="120px" viewBox="0 0 120 120" version="1.1" xmlns="http://www.w3.org/2000/svg">
  <g stroke="none" stroke-width="1" fill="none" fill-rule="evenodd">
    <path d="M120,108 C120,114.6 114.6,120 108,120 L12,120 C5.4,120 0,114.6 0,108 L0,12 C0,5.4 5.4,0 12,0 L108,0 C114.6,0 120,5.4 120,12 L120,108 L120,108 Z" id="Shape" fill="#2A739E" style="fill: rgb(79, 190, 117);"/>
    <path d="M 56.645 79.33 C 56.645 86.661 59.632 93.448 64.788 98.607 C 65.874 99.693 67.505 99.693 68.591 98.607 C 69.677 97.251 69.677 95.62 68.591 94.534 C 64.518 90.464 62.346 85.034 62.346 79.33 C 62.346 73.359 64.518 67.929 68.591 63.856 C 69.677 62.77 69.677 61.142 68.591 60.056 C 67.505 58.97 65.874 58.97 64.788 60.056 C 59.632 65.212 56.645 72.002 56.645 79.33 Z M 72.664 90.464 C 73.75 91.55 75.378 91.55 76.734 90.464 C 77.82 89.378 77.82 87.747 76.734 86.661 C 74.836 84.489 73.476 82.047 73.476 79.33 C 73.476 76.346 74.562 73.9 76.734 72.002 C 77.82 70.916 77.82 69.015 76.734 67.929 C 75.378 66.843 73.75 66.843 72.664 67.929 C 69.677 70.916 68.046 74.986 68.046 79.33 C 68.046 83.403 69.677 87.477 72.664 90.464 Z M 108.772 60.056 C 107.686 58.97 105.785 58.97 104.699 60.056 C 103.613 61.142 103.613 62.77 104.699 63.856 C 108.772 67.929 110.944 73.359 111.215 79.33 C 110.944 85.034 108.772 90.464 104.699 94.534 C 103.613 95.62 103.613 97.251 104.699 98.607 C 105.785 99.693 107.686 99.693 108.772 98.607 C 113.932 93.448 116.645 86.661 116.645 79.33 C 116.645 72.002 113.932 65.212 108.772 60.056 Z M 105.514 79.33 C 105.514 74.986 103.613 70.916 100.626 67.929 C 99.54 66.843 97.912 66.843 96.827 67.929 C 95.741 69.015 95.741 70.916 96.827 72.002 C 98.728 73.9 99.814 76.346 99.814 79.33 C 99.814 82.047 98.728 84.489 96.827 86.661 C 95.741 87.747 95.741 89.378 96.827 90.464 C 97.912 91.55 99.54 91.55 100.626 90.464 C 103.613 87.477 105.514 83.403 105.514 79.33 Z M 83.795 85.846 C 81.078 84.76 79.451 82.317 79.451 79.06 C 79.451 74.986 82.709 71.728 86.782 71.728 C 90.852 71.728 94.11 74.986 94.11 79.06 C 94.11 82.317 92.212 84.76 89.495 85.846 L 89.495 115.442 C 89.495 116.254 88.954 116.798 88.139 116.798 L 85.151 116.798 C 84.61 116.798 83.795 116.254 83.795 115.442 L 83.795 85.846 Z" style="fill: rgb(255, 255, 255);"/>
    <path d="M 67.138 11.644 C 67.138 8.941 64.706 6.779 62.004 6.779 L 12.273 6.779 C 9.571 6.779 7.138 8.941 7.138 11.644 L 7.138 51.644 C 7.138 54.347 9.571 56.509 12.273 56.509 L 62.004 56.509 C 64.706 56.509 67.138 54.347 67.138 51.644 L 67.138 11.644 Z M 54.165 46.509 L 17.949 46.509 C 16.328 46.509 15.516 44.888 16.328 43.806 L 27.408 24.617 C 27.679 23.806 29.03 23.806 29.3 24.617 L 36.057 35.968 C 36.598 36.779 37.678 36.779 38.22 36.239 L 43.624 28.401 C 43.896 27.589 45.247 27.589 45.516 28.401 L 55.516 44.077 C 56.328 45.157 55.516 46.509 54.165 46.509 Z M 50.921 24.076 C 48.219 24.076 45.787 21.915 45.787 19.211 C 45.787 16.509 48.219 14.077 50.921 14.077 C 53.625 14.077 55.788 16.509 55.788 19.211 C 55.788 21.915 53.625 24.076 50.921 24.076 Z" style="fill: rgb(255, 255, 255);"/>
  </g>
</svg>